<?xml version="1.0" standalone="no"?>
<!DOCTYPE svg PUBLIC "-//W3C//DTD SVG 20010904//EN"
 "http://www.w3.org/TR/2001/REC-SVG-20010904/DTD/svg10.dtd">
<svg version="1.0" xmlns="http://www.w3.org/2000/svg"
 width="500.000000pt" height="500.000000pt" viewBox="0 0 500.000000 500.000000"
 preserveAspectRatio="xMidYMid meet">

<g transform="translate(0.000000,500.000000) scale(0.100000,-0.100000)"
fill="#000000" stroke="none">
<path d="M2480 3592 c-41 -13 -54 -81 -20 -105 18 -12 20 -27 22 -188 3 -147
5 -174 18 -174 13 0 15 27 18 173 2 156 4 174 22 192 20 20 26 55 12 77 -10
16 -53 31 -72 25z m44 -45 c16 -25 -16 -56 -38 -37 -19 15 -20 32 -4 48 15 15
28 11 42 -11z"/>
<path d="M2269 3550 c-54 -28 -167 -58 -280 -72 -54 -6 -99 -15 -99 -18 0 -13
84 -106 113 -126 41 -27 92 -44 132 -44 29 0 33 -4 39 -34 7 -38 55 -86 86
-86 25 0 16 26 -23 62 -36 34 -32 58 13 73 37 13 49 42 15 38 -11 -2 -43 -5
-72 -9 -57 -7 -123 2 -123 16 0 6 13 10 29 10 31 0 175 43 200 59 20 13 6 45
-17 36 -59 -26 -128 -45 -201 -55 -83 -11 -85 -11 -102 12 l-18 23 72 8 c40 4
117 24 172 43 55 19 108 37 118 40 12 5 17 1 17 -11 0 -43 69 -125 105 -125
15 0 2 37 -22 62 -15 16 -34 48 -43 71 -13 35 -20 42 -45 44 -17 2 -46 -6 -66
-17z"/>
<path d="M2624 3535 c-7 -19 -14 -38 -14 -43 0 -4 -13 -21 -30 -37 -29 -28
-41 -65 -20 -65 22 0 81 65 92 102 8 29 16 38 27 34 9 -3 61 -21 117 -41 56
-19 132 -37 173 -41 l73 -7 -24 -24 c-23 -23 -26 -23 -103 -12 -44 6 -110 21
-147 34 -67 23 -78 23 -78 -1 0 -20 154 -74 213 -74 15 0 27 -4 27 -10 0 -14
-66 -23 -123 -16 -29 4 -61 7 -72 9 -34 4 -23 -27 15 -39 45 -15 49 -38 13
-72 -40 -37 -49 -62 -22 -62 28 0 78 52 85 89 6 26 11 31 37 31 66 0 111 23
180 91 37 37 67 71 67 76 0 5 -45 15 -100 21 -120 15 -197 35 -269 67 -75 35
-99 33 -117 -10z"/>
<path d="M2344 3285 c-19 -47 -18 -62 11 -111 18 -31 55 -65 125 -114 89 -63
130 -107 130 -140 0 -13 -79 -100 -91 -100 -5 0 -9 38 -9 84 0 47 -4 88 -10
91 -6 4 -10 -27 -10 -84 0 -50 -4 -91 -8 -91 -4 0 -27 18 -50 40 -51 49 -53
76 -11 125 37 42 31 60 -7 24 -38 -34 -54 -77 -42 -109 5 -14 47 -61 94 -105
82 -78 84 -81 84 -127 0 -37 -4 -50 -20 -58 -19 -10 -20 -8 -20 39 0 27 -4 53
-10 56 -6 4 -10 -15 -10 -49 0 -55 -8 -68 -27 -43 -19 23 -22 60 -8 93 19 47
-2 65 -23 19 -23 -50 -15 -95 23 -131 19 -18 35 -40 35 -48 0 -9 5 -16 10 -16
6 0 10 7 10 16 0 8 16 31 36 50 34 31 36 37 32 79 -3 27 -16 58 -31 78 l-25
32 54 50 c47 44 54 56 54 89 0 33 -7 46 -51 90 l-51 50 24 19 c56 44 92 84
105 116 13 30 13 39 -2 78 -9 23 -21 43 -26 43 -5 0 -19 -15 -30 -32 -16 -27
-19 -44 -15 -90 l6 -57 -42 -30 c-23 -17 -45 -31 -49 -31 -3 0 -27 16 -53 36
-39 29 -45 38 -36 54 16 30 12 82 -10 118 -25 41 -37 40 -56 -3z m51 -50 c3
-17 1 -37 -5 -45 -9 -13 -11 -13 -20 0 -5 8 -10 29 -10 46 0 55 25 54 35 -1z
m245 1 c0 -43 -26 -69 -35 -34 -7 29 11 82 25 73 5 -3 10 -21 10 -39z"/>
<path d="M1951 3261 c-12 -12 -21 -24 -21 -29 0 -4 -7 -91 -16 -192 -16 -194
-14 -272 13 -355 20 -63 40 -92 126 -184 41 -43 79 -95 93 -127 24 -54 40 -67
50 -39 11 28 -45 119 -129 212 -89 97 -109 139 -122 248 -8 61 21 425 34 438
5 5 17 7 25 4 13 -5 16 -32 18 -159 3 -128 5 -153 18 -153 12 0 16 23 20 123
5 114 6 122 22 110 15 -11 16 -26 10 -117 -6 -81 -5 -104 6 -108 20 -8 24 2
30 77 4 58 8 70 21 68 14 -3 15 -17 13 -91 -3 -72 -1 -87 11 -87 20 0 25 16
33 103 6 68 5 76 -15 96 -11 11 -27 21 -34 21 -7 0 -17 15 -22 33 -7 21 -20
37 -40 45 -16 8 -37 28 -45 45 -19 41 -68 49 -99 18z"/>
<path d="M2957 3262 c-10 -10 -17 -26 -17 -35 0 -9 -6 -17 -14 -17 -25 0 -66
-41 -66 -66 0 -17 -6 -24 -18 -24 -32 0 -52 -33 -51 -81 1 -84 13 -133 32
-137 16 -3 18 4 15 85 -2 73 0 88 12 88 11 0 16 -13 18 -50 3 -72 10 -95 29
-95 14 0 15 13 9 114 -6 99 -5 114 9 120 9 3 19 6 21 6 2 0 4 -57 4 -126 0
-114 2 -125 18 -122 15 3 17 20 20 156 2 127 5 154 18 159 8 3 19 2 24 -3 4
-5 15 -97 24 -204 24 -295 10 -353 -119 -491 -73 -77 -125 -161 -125 -201 0
-36 29 -16 53 36 15 32 57 89 103 137 132 142 151 218 128 507 -7 97 -14 187
-14 200 0 52 -78 83 -113 44z"/>
<path d="M2050 2897 c-46 -23 -39 -68 30 -184 33 -57 67 -103 75 -103 25 0 18
21 -44 130 -45 77 -57 108 -49 117 6 7 15 13 20 13 6 0 68 -58 139 -130 106
-107 129 -136 135 -167 39 -226 52 -269 74 -247 13 13 -37 281 -60 319 -10 17
-39 45 -63 64 -25 18 -71 64 -103 103 -84 101 -103 111 -154 85z"/>
<path d="M2751 2771 l-138 -139 -21 -113 c-36 -193 -37 -199 -19 -199 23 0 24
4 47 136 12 65 24 128 27 139 3 11 42 56 87 100 45 44 101 101 124 128 45 49
68 58 79 31 6 -15 -16 -60 -81 -169 -35 -57 -38 -75 -11 -75 18 0 135 201 135
233 0 15 -9 36 -20 47 -41 41 -62 29 -209 -119z"/>
</g>
</svg>
