<?xml version="1.0" standalone="no"?>
<!DOCTYPE svg PUBLIC "-//W3C//DTD SVG 20010904//EN"
 "http://www.w3.org/TR/2001/REC-SVG-20010904/DTD/svg10.dtd">
<svg version="1.0" xmlns="http://www.w3.org/2000/svg"
 width="500.000000pt" height="500.000000pt" viewBox="0 0 500.000000 500.000000"
 preserveAspectRatio="xMidYMid meet">

<g transform="translate(0.000000,500.000000) scale(0.100000,-0.100000)"
fill="#000000" stroke="none">
<path d="M2474 3587 c-26 -14 -34 -27 -34 -59 0 -16 8 -33 20 -41 18 -12 20
-27 22 -188 3 -147 5 -174 18 -174 13 0 15 27 18 173 2 156 4 174 22 192 20
20 26 55 12 77 -13 21 -56 32 -78 20z m50 -40 c14 -21 -13 -51 -37 -41 -20 7
-22 35 -5 52 15 15 28 11 42 -11z"/>
<path d="M2269 3550 c-54 -28 -167 -58 -280 -72 -54 -6 -99 -15 -99 -18 0 -13
84 -106 113 -126 41 -27 92 -44 132 -44 29 0 33 -4 39 -34 7 -38 55 -86 86
-86 25 0 16 26 -23 62 -36 34 -32 58 13 73 37 13 49 42 15 38 -11 -2 -43 -5
-72 -9 -57 -7 -123 2 -123 16 0 6 13 10 29 10 31 0 175 43 200 59 20 13 6 45
-17 36 -59 -26 -128 -45 -200 -55 -81 -11 -83 -11 -102 12 l-18 23 71 8 c40 4
117 24 172 43 55 19 108 37 118 40 12 5 17 1 17 -11 0 -43 69 -125 105 -125
15 0 2 37 -22 62 -15 16 -34 48 -43 71 -13 35 -20 42 -45 44 -17 2 -46 -6 -66
-17z"/>
<path d="M2624 3535 c-7 -19 -14 -38 -14 -43 0 -4 -13 -21 -30 -37 -29 -28
-41 -65 -20 -65 22 0 81 65 92 102 8 29 16 38 27 34 9 -3 61 -21 117 -41 56
-19 132 -37 173 -41 l73 -7 -24 -24 c-23 -22 -27 -23 -101 -13 -43 5 -109 20
-147 34 -69 24 -80 24 -80 0 0 -20 154 -74 213 -74 15 0 27 -4 27 -9 0 -15
-76 -23 -140 -16 -73 8 -75 8 -75 -7 0 -7 16 -18 35 -24 45 -15 49 -38 13 -72
-40 -37 -49 -62 -22 -62 28 0 78 52 85 89 6 26 11 31 37 31 66 0 111 23 180
91 37 37 67 71 67 76 0 5 -45 15 -100 21 -120 15 -197 35 -269 67 -75 35 -99
33 -117 -10z"/>
<path d="M2356 3301 c-10 -11 -14 -25 -10 -36 5 -11 4 -16 -3 -12 -6 4 -9 -5
-8 -21 3 -41 4 -46 12 -38 8 8 9 13 11 60 2 20 6 27 17 23 21 -9 29 11 12 28
-13 12 -17 12 -31 -4z"/>
<path d="M2630 3313 c0 -7 -7 -13 -15 -13 -15 0 -19 -11 -16 -39 2 -7 -2 -10
-7 -7 -16 9 -20 -40 -7 -71 14 -32 1 -63 -26 -63 -11 0 -11 -2 1 -10 12 -8 11
-10 -7 -10 -12 0 -25 -4 -28 -10 -10 -16 -41 -11 -60 10 -10 11 -21 17 -26 15
-14 -9 -39 37 -29 54 4 9 7 32 5 51 -2 19 -4 40 -5 45 0 6 -4 4 -9 -4 -6 -9
-6 -24 0 -38 7 -19 4 -29 -12 -46 l-20 -22 53 -47 c29 -25 56 -44 60 -42 3 2
9 -2 11 -8 4 -10 6 -10 6 0 1 6 6 12 12 12 5 0 7 -5 4 -10 -3 -6 8 -22 25 -37
18 -14 43 -44 56 -65 l25 -39 -25 -30 c-62 -73 -112 -92 -141 -53 -10 13 -14
15 -15 5 0 -7 24 -37 53 -66 54 -56 55 -58 61 -106 4 -31 -26 -80 -40 -67 -4
4 -8 28 -8 52 -1 25 -5 48 -8 52 -3 3 -5 -19 -5 -49 1 -32 -2 -54 -8 -53 -21
3 -35 18 -35 37 0 10 -7 19 -15 19 -8 0 -15 -4 -15 -9 0 -21 13 -41 27 -41 8
0 12 -4 8 -9 -6 -11 23 -27 45 -25 8 1 21 2 28 3 6 0 12 8 12 16 0 8 6 14 13
13 6 -2 11 5 11 15 -1 9 2 17 6 17 4 0 7 13 6 30 -1 16 -3 30 -6 30 -3 0 -6
10 -7 22 -1 12 -11 31 -23 42 -20 20 -21 20 -14 1 4 -11 4 -17 0 -14 -10 9
-16 50 -7 44 5 -3 12 2 15 11 3 9 11 12 18 8 7 -4 10 -4 6 0 -8 9 13 36 23 30
4 -2 14 5 24 16 11 13 14 20 6 20 -7 0 -9 5 -6 10 4 6 10 8 15 5 5 -3 7 14 5
37 -4 35 -13 51 -50 86 l-46 44 40 39 c21 21 44 39 51 39 8 0 11 3 7 6 -3 3 2
14 11 25 9 11 18 27 18 37 1 9 3 22 4 27 6 25 -2 45 -17 45 -12 0 -14 3 -6 8
8 5 9 13 3 22 -7 10 -10 11 -10 3z m2 -38 c9 -4 12 -19 10 -50 -2 -25 -8 -42
-13 -39 -5 3 -9 0 -9 -6 0 -6 -5 -8 -10 -5 -12 7 -10 105 2 105 3 0 12 -2 20
-5z m-24 -310 c-3 -3 -9 2 -12 12 -6 14 -5 15 5 6 7 -7 10 -15 7 -18z m-108
-161 c0 -8 -19 -13 -24 -6 -3 5 1 9 9 9 8 0 15 -2 15 -3z"/>
<path d="M1945 3226 c-19 -29 -50 -373 -41 -456 8 -69 32 -146 59 -185 12 -16
53 -64 91 -106 44 -46 77 -93 87 -120 16 -45 49 -67 49 -32 0 39 -52 122 -128
206 -117 127 -131 184 -113 432 17 226 20 245 41 245 27 0 30 -19 30 -171 0
-112 3 -139 14 -139 22 0 26 23 26 137 0 79 3 104 13 100 9 -3 11 -33 9 -116
-2 -105 -1 -111 18 -111 17 0 20 7 20 44 0 70 10 105 27 99 13 -5 14 -20 9
-89 -4 -48 -3 -85 2 -88 21 -13 34 26 35 106 2 82 2 82 -30 103 -17 11 -33 29
-35 40 -2 10 -19 30 -38 43 -19 13 -39 33 -43 45 -16 44 -77 52 -102 13z"/>
<path d="M2939 3240 c-9 -5 -19 -20 -22 -33 -4 -13 -19 -27 -36 -34 -20 -7
-35 -23 -45 -47 -8 -20 -19 -36 -25 -36 -22 0 -41 -33 -41 -74 0 -86 11 -136
31 -136 16 0 18 7 12 83 -5 70 -3 85 10 90 13 5 17 -7 22 -69 6 -62 10 -74 26
-74 16 0 18 10 16 112 -1 80 1 112 10 115 9 3 13 -26 15 -114 3 -103 5 -118
21 -121 16 -3 17 9 17 148 0 127 2 152 16 157 8 3 20 1 25 -4 14 -14 41 -368
33 -433 -12 -99 -39 -153 -124 -246 -80 -87 -120 -152 -120 -192 0 -38 27 -24
45 25 11 29 47 77 96 130 138 149 157 220 134 512 -8 97 -15 184 -15 194 0 42
-61 70 -101 47z"/>
<path d="M2360 3180 c0 -5 5 -10 11 -10 5 0 7 5 4 10 -3 6 -8 10 -11 10 -2 0
-4 -4 -4 -10z"/>
<path d="M2413 3008 c-13 -22 -13 -42 0 -29 10 10 19 41 12 41 -2 0 -7 -6 -12
-12z"/>
<path d="M2491 2910 c-1 -44 3 -80 8 -80 10 0 11 149 1 155 -4 3 -8 -31 -9
-75z"/>
<path d="M2373 2939 c5 -29 14 -32 19 -6 3 15 0 24 -8 24 -8 0 -12 -8 -11 -18z"/>
<path d="M2385 2891 c-3 -5 6 -22 20 -38 19 -22 24 -24 25 -11 0 10 -9 22 -20
28 -11 6 -18 15 -15 21 4 5 4 9 1 9 -3 0 -7 -4 -11 -9z"/>
<path d="M2026 2858 c-9 -12 -16 -29 -16 -37 0 -22 124 -231 137 -231 26 0 20
21 -37 121 -33 57 -60 109 -60 115 0 16 28 26 45 17 7 -5 40 -40 74 -79 33
-39 79 -85 101 -103 58 -46 69 -68 85 -167 24 -143 36 -184 51 -184 20 0 18
38 -10 179 l-25 121 -128 135 c-119 124 -131 134 -165 135 -27 0 -41 -6 -52
-22z"/>
<path d="M2732 2754 c-68 -69 -127 -135 -133 -147 -12 -29 -58 -280 -52 -289
2 -5 10 -8 17 -8 13 0 23 37 51 195 18 99 19 101 90 164 28 25 74 72 103 105
63 72 78 82 97 66 16 -13 6 -39 -68 -163 -28 -48 -37 -71 -29 -79 16 -16 25
-6 86 96 77 130 76 187 -3 185 -32 0 -48 -13 -159 -125z"/>
<path d="M2441 2736 c-15 -18 -23 -66 -11 -66 10 0 33 56 28 71 -2 7 -8 6 -17
-5z"/>
<path d="M2490 2555 c0 -8 4 -15 8 -15 5 0 9 7 9 15 0 8 -4 15 -9 15 -4 0 -8
-7 -8 -15z"/>
</g>
</svg>
